<?xml version="1.0" encoding="UTF-8"?>
<svg width="223px" height="32px" viewBox="0 0 223 32" version="1.1" xmlns="http://www.w3.org/2000/svg" xmlns:xlink="http://www.w3.org/1999/xlink">
    <!-- Generator: Sketch 43.2 (39069) - http://www.bohemiancoding.com/sketch -->
    <title>Page 1</title>
    <desc>Created with Sketch.</desc>
    <defs>
        <polygon id="path-1" points="0 31.902976 223 31.902976 223 -7.10542736e-15 0 -7.10542736e-15"></polygon>
    </defs>
    <g id="Page-1" stroke="none" stroke-width="1" fill="none" fill-rule="evenodd">
        <g id="Login" transform="translate(-39.000000, -44.000000)">
            <g id="Page-1" transform="translate(39.000000, 44.000000)">
                <path d="M66.3298284,14.6738432 L66.3298284,25.3359872 L61.6701778,25.3359872 L61.6701778,14.9869312 C61.6701778,12.9005312 60.5884966,11.6832512 58.6998178,11.6832512 C56.5973213,11.6832512 55.4088625,13.0743552 55.4088625,15.6125952 L55.4088625,25.3359872 L50.7492119,25.3359872 L50.7492119,14.9869312 C50.7492119,12.9005312 49.6851084,11.6832512 47.7964295,11.6832512 C45.7652931,11.6832512 44.4876342,13.0743552 44.4876342,15.6125952 L44.4876342,25.3359872 L39.8279836,25.3359872 L39.8279836,7.4833152 L44.4876342,7.4833152 L44.4876342,9.8405632 C45.5068754,8.2758912 47.169406,7.5109632 49.4143601,7.5109632 C51.5882166,7.5109632 53.2137554,8.3452672 54.247426,10.0143872 C55.4232919,8.3452672 57.2240825,7.5109632 59.5758142,7.5109632 C63.6737672,7.5109632 66.3298284,10.3272192 66.3298284,14.6738432 Z" id="Fill-1" fill="#FFFFFF"></path>
                <mask id="mask-2" fill="white">
                    <use xlink:href="#path-1"></use>
                </mask>
                <g id="Clip-4"></g>
                <path d="M70.8439518,25.336064 L75.5036024,25.336064 L75.5036024,7.483392 L70.8439518,7.483392 L70.8439518,25.336064 Z M70.3764388,3.164416 C70.3764388,1.66912 71.6593447,0.38272 73.1914859,0.38272 C74.7595694,0.38272 76.0424753,1.66912 76.0424753,3.164416 C76.0424753,4.659456 74.7595694,5.911296 73.1914859,5.911296 C71.6593447,5.911296 70.3764388,4.659456 70.3764388,3.164416 L70.3764388,3.164416 Z" id="Fill-3" fill="#FFFFFF" mask="url(#mask-2)"></path>
                <path d="M95.13626,9.42336 C96.4191659,10.70976 97.0545847,12.448256 97.0545847,14.708736 L97.0545847,25.336064 L92.5402776,25.336064 L92.5402776,15.264768 C92.5402776,12.935168 91.0884165,11.683328 88.9505024,11.683328 C86.5628282,11.683328 84.9685094,13.108992 84.9685094,15.995136 L84.9685094,25.336064 L80.4544647,25.336064 L80.4544647,7.483392 L84.9685094,7.483392 L84.9685094,9.945088 C86.1333565,8.310528 87.8785282,7.510784 90.3018824,7.510784 C92.2616588,7.510784 93.8890341,8.136704 95.13626,9.42336" id="Fill-5" fill="#FFFFFF" mask="url(#mask-2)"></path>
                <polygon id="Fill-6" fill="#FFFFFF" mask="url(#mask-2)" points="136.442996 7.4833408 141.50326 7.4833408 134.732455 25.3360128 129.494316 25.3360128 122.723774 7.4833408 127.783775 7.4833408 132.095808 20.1714688"></polygon>
                <path d="M152.300762,21.593472 C153.726126,21.593472 154.901992,21.141376 155.82836,20.23744 C156.79067,19.298432 157.253986,18.116224 157.253986,16.69056 C157.253986,15.264896 156.79067,14.082688 155.82836,13.178752 C154.901992,12.239744 153.726126,11.787648 152.300762,11.787648 C150.875136,11.787648 149.699533,12.239744 148.772902,13.178752 C147.846272,14.082688 147.383219,15.264896 147.383219,16.69056 C147.383219,18.116224 147.846272,19.298432 148.772902,20.23744 C149.699533,21.141376 150.875136,21.593472 152.300762,21.593472 L152.300762,21.593472 Z M157.192857,8.001408 L161.85277,8.001408 L161.85277,25.336192 L157.192857,25.336192 L157.192857,23.331968 C155.882404,25.035904 153.90951,25.870464 151.415059,25.870464 C149.027384,25.870464 147.011727,25.001088 145.300923,23.22752 C143.626324,21.454464 142.778662,19.263616 142.778662,16.69056 C142.778662,14.117504 143.637606,11.961472 145.312467,10.188416 C147.023008,8.414848 149.02581,7.510912 151.413222,7.510912 C153.907674,7.510912 155.882404,8.345472 157.192857,10.049152 L157.192857,8.001408 Z" id="Fill-7" fill="#FFFFFF" mask="url(#mask-2)"></path>
                <path d="M198.661124,15.1057152 C198.126711,12.6900992 196.345072,11.5939072 194.242314,11.5939072 C191.783542,11.5939072 190.108681,12.8324352 189.574268,15.1057152 L198.661124,15.1057152 Z M189.645628,18.5158912 C190.251401,20.7891712 191.925999,21.7932032 194.669949,21.7932032 C196.41617,21.7932032 197.770174,21.2067072 198.661124,20.0590592 L202.367122,22.1475072 C200.621163,24.6163712 198.019934,25.8692352 194.598851,25.8692352 C191.641084,25.8692352 189.28909,25.0006272 187.507451,23.2618752 C185.72555,21.5233792 184.834862,19.3330432 184.834862,16.6903552 C184.834862,14.0822272 185.72555,11.8918912 187.472034,10.1533952 C189.217992,8.3800832 191.498626,7.5107072 194.242314,7.5107072 C196.843805,7.5107072 199.017399,8.3800832 200.692261,10.1533952 C202.402802,11.9267072 203.25781,14.0737792 203.25781,16.6819072 C203.25781,17.2730112 203.240757,17.8579712 203.133717,18.5683712 L189.645628,18.5158912 Z" id="Fill-8" fill="#FFFFFF" mask="url(#mask-2)"></path>
                <path d="M218.08243,7.5481088 L222.999974,7.5481088 L216.53035,24.9323008 C214.677351,29.9394048 211.652684,32.1282048 207.13864,31.8847488 L207.13864,27.7122048 C209.614202,27.7467648 210.935936,26.7404288 211.791207,24.3760128 L204.469986,7.5481088 L209.494569,7.5481088 L214.126935,19.2316928 L218.08243,7.5481088 Z" id="Fill-9" fill="#FFFFFF" mask="url(#mask-2)"></path>
                <path d="M171.171967,0.0105984 L171.171967,0.0001024 C166.512316,0.5953024 166.657922,4.0431104 166.657922,4.0431104 L166.657922,25.4782464 L171.171967,25.4782464 L171.171967,0.0001024 L171.171967,0.0105984 Z" id="Fill-10" fill="#FFFFFF" mask="url(#mask-2)"></path>
                <path d="M113.815055,20.2373632 C112.888687,21.1415552 111.712558,21.5933952 110.287195,21.5933952 C108.861831,21.5933952 107.685965,21.1415552 106.723917,20.2373632 C105.797287,19.2986112 105.333971,18.1161472 105.333971,16.6907392 C105.333971,15.2648192 105.797287,14.0826112 106.723917,13.1786752 C107.685965,12.2399232 108.861831,11.7878272 110.287195,11.7878272 C111.712558,11.7878272 112.888687,12.2399232 113.815055,13.1786752 C114.741685,14.0826112 115.204738,15.2648192 115.204738,16.6907392 C115.204738,18.1161472 114.741685,19.2986112 113.815055,20.2373632 L113.815055,20.2373632 Z M119.624598,1.0701312 L119.624598,0.9946112 C114.964948,1.5898112 115.110291,5.0388992 115.110291,5.0388992 L115.110291,10.0490752 C113.654495,8.3453952 111.879152,7.5108352 109.384963,7.5108352 C106.997289,7.5108352 104.954084,8.4147712 103.243543,10.1883392 C101.568682,11.9616512 100.725217,14.1174272 100.725217,16.6907392 C100.725217,19.2637952 101.586522,21.4543872 103.261121,23.2276992 C104.971662,25.0010112 106.994403,25.8703872 109.382077,25.8703872 C111.876267,25.8703872 113.654495,25.0358272 115.110291,23.3318912 L115.110291,25.4781952 L119.624598,25.4781952 L119.624598,1.0432512 L119.624598,1.0701312 Z" id="Fill-11" fill="#FFFFFF" mask="url(#mask-2)"></path>
                <path d="M180.636926,0.0105984 L180.636926,0.0001024 C175.977276,0.5953024 176.122881,4.0431104 176.122881,4.0431104 L176.122881,25.4782464 L180.636926,25.4782464 L180.636926,0.0001024 L180.636926,0.0105984 Z" id="Fill-12" fill="#FFFFFF" mask="url(#mask-2)"></path>
                <path d="M20.6934818,5.3563392 C19.0535135,7.2033792 18.6943524,15.7757952 18.6814971,16.0947712 L18.6814971,16.0983552 C18.6812347,16.1029632 18.6812347,16.1050112 18.6812347,16.1050112 C18.6812347,16.1050112 19.6826359,16.6162432 25.7710606,11.3562112 C31.8597476,6.0956672 35.5153735,1.2792832 35.5153735,1.2792832 C35.5153735,1.2792832 23.45291,2.2500352 20.6934818,5.3563392" id="Fill-13" fill="#FFFFFF" mask="url(#mask-2)"></path>
                <path d="M16.8345324,16.094848 C16.8340076,16.078464 16.8321712,16.039552 16.8295476,15.98144 C16.8295476,15.98016 16.8295476,15.979136 16.8292853,15.978112 C16.8229888,15.834752 16.8101335,15.574912 16.7894076,15.226496 C16.7891453,15.22112 16.7888829,15.215488 16.7886206,15.210112 C16.7841606,15.137664 16.7797006,15.062144 16.7744535,14.982528 C16.7741912,14.977408 16.7739288,14.972032 16.7734041,14.966656 C16.7684194,14.888064 16.7631724,14.805888 16.7574006,14.720896 C16.7571382,14.717312 16.7568759,14.713728 16.7566135,14.710144 C16.7511041,14.627712 16.74507,14.541696 16.7390359,14.453632 C16.7377241,14.437504 16.7366747,14.421632 16.7356253,14.405248 C16.7293288,14.318976 16.72277,14.230656 16.7159488,14.13952 C16.7146371,14.12416 16.7135876,14.108288 16.7122759,14.092672 C16.7051924,13.99872 16.6978465,13.903232 16.6899759,13.804928 C16.6891888,13.798016 16.6886641,13.791104 16.6881394,13.784448 C16.6807935,13.691008 16.6726606,13.59552 16.6645276,13.498496 C16.6626912,13.478016 16.6611171,13.457792 16.6592806,13.437312 C16.6508853,13.340032 16.6422276,13.241472 16.6330453,13.14112 C16.6309465,13.1168 16.6285853,13.092224 16.6264865,13.067392 C16.6170418,12.966528 16.6075971,12.864384 16.5976276,12.760704 C16.5955288,12.739712 16.5936924,12.71872 16.5915935,12.697472 C16.5821488,12.600704 16.5721794,12.502912 16.56221,12.404096 C16.5603735,12.386176 16.5585371,12.368512 16.5567006,12.350848 C16.5456818,12.244096 16.5341382,12.13632 16.5225947,12.028032 C16.5194465,12.00064 16.5165606,11.973248 16.5134124,11.9456 C16.5016065,11.837824 16.4892759,11.72928 16.4766829,11.619968 C16.4737971,11.595904 16.4709112,11.571584 16.4680253,11.547264 C16.4546453,11.432832 16.4407406,11.317888 16.4263112,11.202432 C16.4247371,11.191424 16.4234253,11.18016 16.4221135,11.168896 C16.4082088,11.060096 16.3940418,10.950528 16.3796124,10.841216 C16.3764641,10.818432 16.3735782,10.795648 16.37043,10.772864 C16.3554759,10.660736 16.3399971,10.548864 16.3239935,10.436736 C16.3203206,10.409856 16.3163853,10.382976 16.31245,10.356352 C16.2961841,10.243712 16.2796559,10.131328 16.2623406,10.0192 C16.2591924,9.997952 16.2557818,9.976704 16.2523712,9.955456 C16.2355806,9.846656 16.2182653,9.738112 16.2004253,9.63008 C16.1983265,9.61728 16.1962276,9.604224 16.1941288,9.59168 C16.1755018,9.478272 16.1560876,9.365632 16.1358865,9.25376 C16.1316888,9.228928 16.1272288,9.204096 16.1227688,9.179264 C16.1030924,9.069952 16.0828912,8.961408 16.0621653,8.853632 C16.0579676,8.830592 16.0532453,8.807808 16.0487853,8.784768 C16.0272724,8.67392 16.0052347,8.56384 15.98241,8.455296 C15.9800488,8.44352 15.9774253,8.432 15.9750641,8.42048 C15.9532888,8.317312 15.9307265,8.21568 15.9079018,8.115072 C15.9039665,8.097408 15.9000312,8.079488 15.8960959,8.06208 C15.8722218,7.958656 15.8478229,7.857024 15.8228994,7.756928 C15.8176524,7.735424 15.8124053,7.71392 15.8068959,7.692416 C15.78171,7.593088 15.7559994,7.49504 15.7297641,7.399296 C15.7250418,7.382144 15.7203194,7.365504 15.7155971,7.348352 C15.6888371,7.252352 15.6615524,7.157888 15.6334806,7.065984 C15.6321688,7.060864 15.6305947,7.055488 15.6290206,7.050368 C15.6001618,6.956416 15.5705159,6.86528 15.5403453,6.775936 C15.5348359,6.759296 15.5293265,6.742656 15.5235547,6.726272 C15.4944335,6.640512 15.4642629,6.557568 15.43383,6.477184 C15.4275335,6.461056 15.4214994,6.445184 15.4152029,6.429312 C15.3837206,6.347904 15.3517135,6.268544 15.3186571,6.193024 C15.3149841,6.184576 15.3113112,6.17664 15.3076382,6.168448 C15.2756312,6.095488 15.2428371,6.025856 15.2095182,5.958784 C15.2053206,5.95008 15.2008606,5.940608 15.1964006,5.931904 C15.1620324,5.864064 15.1266147,5.799808 15.0909347,5.738112 C15.0838512,5.726336 15.07703,5.714304 15.0699465,5.702528 C15.0342665,5.643136 14.9977994,5.58656 14.9605453,5.533824 C14.9542488,5.524864 14.9479524,5.516416 14.9416559,5.507712 C14.9023029,5.453696 14.8624253,5.40224 14.8217606,5.356416 C12.06207,2.250112 0.000131176471,1.279104 0.000131176471,1.279104 C0.000131176471,1.279104 3.65549471,6.095744 9.74496882,11.356288 C15.8326065,16.61632 16.8347947,16.105088 16.8347947,16.105088 C16.8347947,16.105088 16.8347947,16.102784 16.8345324,16.098432 L16.8345324,16.094848" id="Fill-14" fill="#FFFFFF" mask="url(#mask-2)"></path>
            </g>
        </g>
    </g>
</svg>