<svg id="Layer_1" data-name="Layer 1" xmlns="http://www.w3.org/2000/svg" viewBox="0 0 262.5 262.5"><defs><style>.cls-1{fill:#fff;}</style></defs><title>logo-in-white</title><path class="cls-1" d="M343.16,199.76q.58,16.4.59,54.49T342.87,309a110.49,110.49,0,0,1-5,29,68.55,68.55,0,0,1-41.6,41.6q-12.3,4.1-29,5t-54.79.88q-38.08,0-54.79-.88t-29-5.57a62.52,62.52,0,0,1-25.49-15.52A68.38,68.38,0,0,1,87.11,338a110.49,110.49,0,0,1-5-29q-.88-16.69-.88-54.78t.88-54.79a110.41,110.41,0,0,1,5-29,68.55,68.55,0,0,1,41.6-41.6q12.3-4.11,29-5T212.5,123q38.08,0,54.79.88t29,5a68.55,68.55,0,0,1,41.6,41.6Q342,182.76,343.16,199.76ZM315,331.59q3.51-10,4.69-31.64.58-12.88.58-36.33V244.87q0-24-.58-36.33-1.17-22.26-4.69-31.64a42.3,42.3,0,0,0-25.2-25.19q-9.37-3.51-31.64-4.69-12.88-.59-36.32-.58H203.12q-23.43,0-36.32.58-21.69,1.17-31.64,4.69A42.3,42.3,0,0,0,110,176.9q-3.51,9.38-4.69,31.64-.58,12.9-.58,36.33v18.75q0,23.44.58,36.33,1.17,21.68,4.69,31.64,7.62,18.17,25.2,25.2,10,3.51,31.64,4.68,12.88.6,36.32.59h18.76q24,0,36.32-.59,22.28-1.17,31.64-4.68Q308,349.17,315,331.59ZM212.5,186.87A65.5,65.5,0,0,1,246.19,196a67.54,67.54,0,0,1,24.61,24.61,67,67,0,0,1,0,67.38,67.61,67.61,0,0,1-24.61,24.61,67,67,0,0,1-67.38,0,67.61,67.61,0,0,1-24.61-24.61,67,67,0,0,1,0-67.38A67.54,67.54,0,0,1,178.81,196,65.5,65.5,0,0,1,212.5,186.87Zm0,111.32a43.91,43.91,0,0,0,31.05-75,43.84,43.84,0,0,0-62.1,0,43.95,43.95,0,0,0,31.05,75Zm86.13-114.25a15.74,15.74,0,1,0-15.82,15.82,14.29,14.29,0,0,0,10.84-4.69A18.27,18.27,0,0,0,298.63,183.94Z" transform="translate(-81.25 -123)"/></svg>