<?xml version="1.0" encoding="UTF-8"?>
<svg width="14px" height="12px" viewBox="0 0 14 12" version="1.1" xmlns="http://www.w3.org/2000/svg" xmlns:xlink="http://www.w3.org/1999/xlink">
    <!-- Generator: Sketch 50 (54983) - http://www.bohemiancoding.com/sketch -->
    <title>ico-twitter</title>
    <desc>Created with Sketch.</desc>
    <defs></defs>
    <g id="Main" stroke="none" stroke-width="1" fill="none" fill-rule="evenodd">
        <g id="Overview" transform="translate(-1230.000000, -7441.000000)" fill="#62686E">
            <g id="footer" transform="translate(0.000000, 7095.000000)">
                <g id="Group-10" transform="translate(155.000000, 339.000000)">
                    <g id="social-media" transform="translate(1046.000000, 5.000000)">
                        <path d="M42.6612,3.556 C42.1663304,3.798 41.7481565,3.806 41.3050261,3.56666667 C41.8765913,3.192 41.9027652,2.92866667 42.109113,2.22066667 C41.5746783,2.568 40.9824174,2.82066667 40.3524174,2.95666667 C39.8484174,2.36866667 39.1301565,2 38.3345913,2 C36.8067652,2 35.5686783,3.35733333 35.5686783,5.02933333 C35.5686783,5.26666667 35.5930261,5.498 35.6398957,5.72 C33.3408522,5.594 31.3029391,4.388 29.9388522,2.55466667 C29.7008522,3.002 29.5638957,3.52266667 29.5638957,4.078 C29.5638957,5.12933333 30.053287,6.056 30.7946783,6.59933333 C30.3412,6.58333333 29.915113,6.44733333 29.5425913,6.22066667 C29.5419826,6.23333333 29.5419826,6.24533333 29.5419826,6.25866667 C29.5419826,7.72666667 30.4952,8.95066667 31.761287,9.22933333 C31.3558957,9.35 30.9285913,9.36866667 30.5116348,9.282 C30.8640696,10.4846667 31.8854609,11.3606667 33.0955478,11.3853333 C31.9116348,12.4013333 30.4440696,12.824 29.0002435,12.6393333 C30.2249391,13.4986667 31.6778957,14 33.2398087,14 C38.3278957,14 41.1096348,9.384 41.1096348,5.38066667 C41.1096348,5.24866667 41.1072,5.11866667 41.1017217,4.98866667 C41.6422435,4.562 42.291113,4.164 42.6612,3.556" id="ico-twitter"></path>
                    </g>
                </g>
            </g>
        </g>
    </g>
</svg>