<svg height="15" viewBox="0 0 15 15" width="15" xmlns="http://www.w3.org/2000/svg"><path d="m142.313101 7.80689009c-.100774 0-.206234-.02343567-.302321-.06913523-1.775252-.88821186-3.688774-1.33700492-5.689008-1.33700492-1.039372 0-2.074057.12889618-3.080619.37614249-.371455.09139911-.741739-.13358331-.833138-.49917975-.091399-.37145536.132412-.8143895.498008-.9069604 1.117881-.27419732 2.261542-.41598312 3.415749-.41598312 2.209983 0 4.334427.49917975 6.298336 1.47879072.342161.16873682.480431.58120459.310522.92453714-.11835.23787204-.360909.44879307-.617529.44879307m-.398407 2.26505741c-.10546.2062339-.31521.5401922-.530818.5401922-.096086 0-.187485-.0222639-.278884-.0691352-1.488165-.77337713-3.09468-1.16240923-4.78322-1.16240923-.929225 0-1.850246.11952191-2.741974.36676822-.321068.08671197-.650339-.10077338-.737051-.42184205-.086712-.32458401.100773-.86946332.42067-.9561753.993672-.26951019 2.02367-.40778064 3.058355-.40778064 1.853761 0 3.702835.44879307 5.336302 1.30067964.297633.15116006.412467.51206937.25662.80970236m-.951488 2.8239981c-.091399.1699086-.270682.2659949-.448793.2659949-.086712 0-.169909-.0187486-.251934-.0644481-1.198734-.6585423-2.563862-1.0112491-3.940707-1.0112491-.824936 0-1.644012.1230372-2.422077.3655964-.274197.0831966-.562456-.0679634-.645652-.3386454-.082025-.2695102.069135-.8460277.338645-.9339114.883525-.2695102 1.799859-.411296 2.729084-.411296 1.551441 0 3.088821.3937192 4.439887 1.1401453.251934.1370986.338646.7347082.201547.9878134m-3.466135-11.8959456c-4.137568 0-7.497071 3.35950316-7.497071 7.49707054 0 4.14342626 3.359503 7.50292946 7.497071 7.50292946 4.143426 0 7.502929-3.3595032 7.502929-7.50292946 0-4.13756738-3.359503-7.49707054-7.502929-7.49707054" fill="#62686e" fill-rule="evenodd" transform="translate(-130 -1)"/></svg>