<svg height="18" viewBox="0 0 17 18" width="17" xmlns="http://www.w3.org/2000/svg"><g fill="#62686e" fill-rule="evenodd" transform="translate(1 1)"><path d="m9.29166429 6.84616429c0 .9895-.80214286 1.79164285-1.79164286 1.79164285-.98957143 0-1.79171429-.80214285-1.79171429-1.79164285s.80214286-1.79164286 1.79171429-1.79164286c.9895 0 1.79164286.80214286 1.79164286 1.79164286"/><path d="m7.50001429 16.5545214c.83328571 0 1.23807142-.4762143 1.38092857-1.1190714.14285714-.6428571.40478571-2.5237857.57142857-4.3809286.16664286-1.85714283-1.95235714-1.76192854-1.95235714-1.76192854s-2.11907143-.09521429-1.95235715 1.76192854c.16664286 1.8571429.42857143 3.7380715.57142857 4.3809286.14285715.6428571.54757143 1.1190714 1.38092858 1.1190714"/><g stroke="#62686e" stroke-width=".3"><path d="m7.50001429 2.39234286c-2.81635715 0-5.10764286 2.29128571-5.10764286 5.10764285 0 1.78914286.92535714 3.36528569 2.32192857 4.27778569v-1.3624285c-.76914286-.73521433-1.24964286-1.76985719-1.24964286-2.91535719 0-2.22507142 1.81028572-4.03528571 4.03535715-4.03528571 2.22507142 0 4.03535711 1.81021429 4.03535711 4.03528571 0 1.1455-.4805 2.18021429-1.2496428 2.91542859v1.3624286c1.3965714-.9125715 2.3219285-2.48871433 2.3219285-4.27785719 0-2.81635714-2.2912142-5.10764285-5.10764281-5.10764285"/><path d="m7.50001429.00000714c-4.1355 0-7.5 3.3645-7.5 7.5 0 3.25742856 2.08771428 6.03607146 4.99521428 7.06935716l-.08821428-1.1095714c-2.29728572-1.0033572-3.907-3.2969286-3.907-5.95978576 0-3.58414285 2.91585714-6.5 6.5-6.5 3.58414281 0 6.50000001 2.91585715 6.50000001 6.5 0 2.66285716-1.6097143 4.95642856-3.907 5.95978576l-.0882857 1.1095714c2.9075714-1.0332857 4.9952857-3.8118572 4.9952857-7.06935716 0-4.1355-3.3645-7.5-7.50000001-7.5"/></g></g></svg>