<?xml version="1.0" encoding="UTF-8" standalone="no"?>
<svg width="32px" height="14px" viewBox="0 0 32 14" version="1.1" xmlns="http://www.w3.org/2000/svg" xmlns:xlink="http://www.w3.org/1999/xlink">
    <!-- Generator: Sketch 50.2 (55047) - http://www.bohemiancoding.com/sketch -->
    <title>ico-soundcloud</title>
    <desc>Created with Sketch.</desc>
    <defs></defs>
    <g id="Layout" stroke="none" stroke-width="1" fill="none" fill-rule="evenodd">
        <g id="Home" transform="translate(-1271.000000, -10807.000000)" fill="#62686E">
            <g id="Footer" transform="translate(0.000000, 10401.000000)">
                <g id="below" transform="translate(143.000000, 398.000000)">
                    <g id="social-media" transform="translate(904.000000, 4.000000)">
                        <g id="ico-soundcloud" transform="translate(224.000000, 4.000000)">
                            <path d="M27.8999551,5.98916854 C27.3638652,5.98916854 26.8523146,6.09786517 26.3865393,6.29292135 C26.0749213,2.76633708 23.1177753,0 19.5106517,0 C18.6278652,0 17.7677303,0.173662921 17.0076404,0.467820225 C16.7120674,0.582022472 16.6337303,0.699685393 16.6308989,0.927775281 L16.6308989,13.3468764 C16.6340449,13.5864494 16.8195056,13.7859101 17.0534157,13.8093483 C17.0634831,13.8104494 27.8301124,13.8157978 27.8999551,13.8157978 C30.0609888,13.8157978 31.8128764,12.0635955 31.8128764,9.90224719 C31.8128764,7.74105618 30.0609888,5.98916854 27.8999551,5.98916854 Z M15.8310112,0.916764045 C15.596,0.916764045 15.4029888,1.10993258 15.3995281,1.34683146 L15.223191,10.1614831 L15.3998427,13.3607191 C15.4029888,13.5941573 15.596,13.7871685 15.8310112,13.7871685 C16.065236,13.7871685 16.2582472,13.5941573 16.2615506,13.3572584 L16.2615506,13.3610337 L16.4533034,10.1614831 L16.2615506,1.34620225 C16.2582472,1.10993258 16.065236,0.916764045 15.8310112,0.916764045 Z M10.8218427,13.4796404 L10.8218427,13.4780674 L11.0474157,10.1589663 L10.8218427,2.92552809 C10.8164944,2.74557303 10.674764,2.60494382 10.4996854,2.60494382 C10.3239775,2.60494382 10.1822472,2.74557303 10.1772135,2.92552809 L9.97680899,10.1589663 L10.1775281,13.4793258 C10.1822472,13.6569213 10.3239775,13.7975506 10.4996854,13.7975506 C10.674764,13.7975506 10.8157079,13.6569213 10.8218427,13.478382 L10.8218427,13.4796404 Z M7.88766292,13.7978652 C8.03065169,13.7978652 8.14862921,13.6814607 8.15555056,13.5324944 L8.41824719,10.1578652 L8.15555056,3.69930337 C8.14862921,3.55017978 8.03065169,3.43361798 7.88766292,3.43361798 C7.74325843,3.43361798 7.62575281,3.55017978 7.61930337,3.69930337 C7.61930337,3.69946067 7.38665169,10.1578652 7.38665169,10.1578652 L7.61961798,13.5337528 C7.62575281,13.6814607 7.74325843,13.7978652 7.88766292,13.7978652 Z M13.153236,2.99332584 C12.9459101,2.99332584 12.7802697,3.15802247 12.7761798,3.36833708 L12.6078652,10.1599101 L12.7761798,13.4277303 C12.7802697,13.636 12.9459101,13.800382 13.153236,13.800382 C13.3597753,13.800382 13.5247865,13.636 13.5293483,13.4255281 L13.5293483,13.4283596 L13.7181124,10.1602247 L13.5293483,3.36786517 C13.5247865,3.15802247 13.3597753,2.99332584 13.153236,2.99332584 Z M2.7858427,13.5773258 C2.86858427,13.5773258 2.9354382,13.5118876 2.94519101,13.4215955 L3.28244944,10.1550337 L2.94550562,6.76498876 C2.9354382,6.67453933 2.86858427,6.60910112 2.7858427,6.60910112 C2.702,6.60910112 2.63467416,6.67485393 2.62633708,6.76498876 C2.62633708,6.76530337 2.32950562,10.1550337 2.32950562,10.1550337 L2.62633708,13.4206517 C2.63467416,13.5118876 2.702,13.5773258 2.7858427,13.5773258 Z M5.31622472,13.7634157 C5.42964045,13.7634157 5.52119101,13.672809 5.52968539,13.5534157 L5.82997753,10.1556629 L5.52968539,6.92370787 C5.52150562,6.80447191 5.42995506,6.71433708 5.31622472,6.71433708 C5.20123596,6.71433708 5.10968539,6.80478652 5.10244944,6.92496629 L4.83786517,10.1556629 L5.10244944,13.5531011 C5.10968539,13.672809 5.20123596,13.7634157 5.31622472,13.7634157 Z M11.8213483,13.7942472 C12.0116854,13.7942472 12.1655281,13.641191 12.1705618,13.4464494 L12.1705618,13.448809 L12.3780449,10.1595955 L12.1705618,3.11051685 C12.1655281,2.91546067 12.0116854,2.76303371 11.8213483,2.76303371 C11.6295955,2.76303371 11.4759101,2.91577528 11.4716629,3.11051685 L11.2871461,10.1595955 L11.4719775,13.4480225 C11.4759101,13.641191 11.6295955,13.7942472 11.8213483,13.7942472 Z M14.4948764,13.8071461 C14.7136854,13.8071461 14.8945843,13.6264045 14.8985169,13.4049213 L14.8985169,13.4074382 L14.8985169,13.4049213 L15.0688764,10.1608539 L14.8985169,2.07844944 C14.8947416,1.85696629 14.7136854,1.67653933 14.4948764,1.67653933 C14.2755955,1.67653933 14.0945393,1.85696629 14.0913933,2.07892135 L13.9389663,10.1581798 C13.9389663,10.1633708 14.0913933,13.4071236 14.0913933,13.4071236 C14.0945393,13.6264045 14.2755955,13.8071461 14.4948764,13.8071461 Z M9.1885618,13.7911011 C9.34759551,13.7911011 9.47689888,13.6627416 9.48366292,13.4983596 L9.72795506,10.1584944 L9.48366292,3.16069663 C9.47721348,2.99631461 9.34759551,2.86795506 9.1885618,2.86795506 C9.02826966,2.86795506 8.89865169,2.99662921 8.89330337,3.16101124 C8.89330337,3.16132584 8.67669663,10.1584944 8.67669663,10.1584944 L8.89330337,13.499618 C8.89865169,13.662427 9.02826966,13.7911011 9.1885618,13.7911011 Z M4.046,6.48907865 C3.94752809,6.48907865 3.86698876,6.56788764 3.8592809,6.67280899 L3.57865169,10.1556629 L3.8592809,13.5251011 C3.86698876,13.629236 3.94752809,13.7082022 4.046,13.7082022 C4.14368539,13.7082022 4.22375281,13.629236 4.23240449,13.5251011 L4.55125843,10.1556629 L4.23240449,6.67217978 C4.22375281,6.56788764 4.14368539,6.48907865 4.046,6.48907865 Z M6.59667416,4.6621573 C6.4681573,4.6621573 6.36229213,4.76707865 6.356,4.90062921 L6.10714607,10.157236 L6.356,13.5542022 C6.36229213,13.6866517 6.4681573,13.7917303 6.59667416,13.7917303 C6.72424719,13.7917303 6.82979775,13.6866517 6.83750562,13.5534157 L6.83750562,13.5542022 L7.11907865,10.157236 L6.83750562,4.90062921 C6.82979775,4.76707865 6.72424719,4.6621573 6.59667416,4.6621573 Z M1.66835955,7.29761798 C1.65750562,7.22179775 1.60292135,7.16925843 1.53622472,7.16925843 C1.46874157,7.16925843 1.41289888,7.22337079 1.40393258,7.29761798 C1.40393258,7.29824719 1.09121348,10.1544045 1.09121348,10.1544045 L1.40393258,12.948427 C1.41289888,13.0229888 1.46874157,13.0774157 1.53622472,13.0774157 C1.60292135,13.0774157 1.65750562,13.0245618 1.66804494,12.9490562 L2.02402247,10.1544045 L1.66835955,7.29761798 Z M0.360067416,8.26314607 C0.293685393,8.26314607 0.241146067,8.31458427 0.232494382,8.38773034 L0,10.1544045 L0.232494382,11.891191 C0.241146067,11.9643371 0.293685393,12.0153034 0.360067416,12.0153034 C0.424247191,12.0153034 0.476629213,11.9649663 0.487011236,11.8918202 L0.487011236,11.8915056 C0.487011236,11.8915056 0.487011236,11.8915056 0.487011236,11.8918202 L0.762764045,10.1544045 L0.487011236,8.38710112 C0.477101124,8.31426966 0.424247191,8.26314607 0.360067416,8.26314607 Z" id="souncloud"></path>
                        </g>
                    </g>
                </g>
            </g>
        </g>
    </g>
</svg>