<?xml version="1.0" encoding="UTF-8"?>
<svg width="15px" height="15px" viewBox="0 0 15 15" version="1.1" xmlns="http://www.w3.org/2000/svg" xmlns:xlink="http://www.w3.org/1999/xlink">
    <!-- Generator: Sketch 50 (54983) - http://www.bohemiancoding.com/sketch -->
    <title>ico-instagram</title>
    <desc>Created with Sketch.</desc>
    <defs></defs>
    <g id="Main" stroke="none" stroke-width="1" fill="none" fill-rule="evenodd">
        <g id="Overview" transform="translate(-1264.000000, -7439.000000)" fill="#62686E">
            <g id="footer" transform="translate(0.000000, 7095.000000)">
                <g id="Group-10" transform="translate(155.000000, 339.000000)">
                    <g id="social-media" transform="translate(1046.000000, 5.000000)">
                        <path d="M75.5903182,1.36363636 C76.1671364,1.36363636 76.6362273,1.83272727 76.6362273,2.41022727 L76.6362273,2.83090909 L76.6362273,3.75 C76.6362273,3.93818182 76.4835,4.09090909 76.2953182,4.09090909 L74.2498636,4.09090909 C74.0623636,4.09090909 73.9089545,3.93818182 73.9089545,3.75 L73.9089545,1.70454545 C73.9089545,1.51636364 74.0623636,1.36363636 74.2498636,1.36363636 L75.5903182,1.36363636 Z M73.2271364,7.5 C73.2271364,9.00409091 72.0039545,10.2272727 70.4998636,10.2272727 C68.9964545,10.2272727 67.7725909,9.00409091 67.7725909,7.5 C67.7725909,5.99590909 68.9964545,4.77272727 70.4998636,4.77272727 C72.0039545,4.77272727 73.2271364,5.99590909 73.2271364,7.5 Z M76.6362273,12.5897727 C76.6362273,13.1672727 76.1671364,13.6363636 75.5903182,13.6363636 L65.4094091,13.6363636 C64.8332727,13.6363636 64.3635,13.1672727 64.3635,12.5897727 L64.3635,6.47727273 L66.5432727,6.47727273 C66.4587273,6.80454545 66.4089545,7.14613636 66.4089545,7.5 C66.4089545,9.7575 68.2444091,11.5909091 70.4998636,11.5909091 C72.756,11.5909091 74.5907727,9.7575 74.5907727,7.5 C74.5907727,7.14613636 74.541,6.80454545 74.4564545,6.47727273 L76.6362273,6.47727273 L76.6362273,12.5897727 Z M77.8478182,1.57159091 C77.8355455,1.53886364 77.8294091,1.50340909 77.8164545,1.47136364 C77.6991818,1.18977273 77.5287273,0.936818182 77.3187273,0.722045455 C76.8844091,0.2775 76.2816818,0 75.6135,0 L73.9089545,0 L67.0907727,0 L65.4094091,0 C64.7187273,0 64.1153182,0.2775 63.6816818,0.721363636 C63.4716818,0.936818182 63.3012273,1.18977273 63.1839545,1.47136364 C63.1703182,1.50340909 63.1641818,1.53886364 63.1525909,1.57159091 C63.1116818,1.68204545 63.0721364,1.79318182 63.0475909,1.91113636 C63.0169091,2.06454545 62.9998636,2.22340909 62.9998636,2.38636364 L62.9998636,2.83090909 L62.9998636,5.11363636 L62.9998636,12.1690909 L62.9998636,12.5897727 C62.9998636,13.9206818 64.0785,15 65.4094091,15 L65.8314545,15 L75.1689545,15 L75.5903182,15 C76.9212273,15 77.9998636,13.9206818 77.9998636,12.5897727 L77.9998636,12.1690909 L77.9998636,5.11363636 L77.9998636,2.83090909 L77.9998636,2.41022727 C77.9998636,2.22340909 77.9835,2.06454545 77.9521364,1.91113636 C77.9282727,1.79318182 77.8880455,1.68204545 77.8478182,1.57159091 Z" id="ico-instagram"></path>
                    </g>
                </g>
            </g>
        </g>
    </g>
</svg>