<?xml version="1.0" encoding="UTF-8"?>
<svg width="16px" height="11px" viewBox="0 0 16 11" version="1.1" xmlns="http://www.w3.org/2000/svg" xmlns:xlink="http://www.w3.org/1999/xlink">
    <!-- Generator: Sketch 50 (54983) - http://www.bohemiancoding.com/sketch -->
    <title>ico-youtube</title>
    <desc>Created with Sketch.</desc>
    <defs></defs>
    <g id="Main" stroke="none" stroke-width="1" fill="none" fill-rule="evenodd">
        <g id="Overview" transform="translate(-1299.000000, -7441.000000)" fill="#62686E">
            <g id="footer" transform="translate(0.000000, 7095.000000)">
                <g id="Group-10" transform="translate(155.000000, 339.000000)">
                    <g id="social-media" transform="translate(1046.000000, 5.000000)">
                        <path d="M108.851332,7.26134914 L104.495559,9.95031926 C104.442785,9.98323275 104.382289,10 104.321792,10 C104.268374,10 104.2156,9.98695881 104.167332,9.96087642 C104.064358,9.90746962 104,9.80251905 104,9.68949537 L104,4.31031312 C104,4.19666842 104.064358,4.09233887 104.167332,4.03769005 C104.270949,3.98366224 104.396447,3.98800931 104.495559,4.04886822 L108.851976,6.73908035 C108.945295,6.79559219 109,6.89433267 109,7.00052525 C109,7.10609683 108.944008,7.20421629 108.851332,7.26134914 M111.374667,2 L100.625333,2 C99.178,2 98,3.144 98,4.54876471 L98,10.4505882 C98,11.856 99.178,13 100.625333,13 L111.374667,13 C112.821333,13 114,11.856 114,10.4505882 L114,4.54876471 C114,3.144 112.821333,2 111.374667,2" id="ico-youtube"></path>
                    </g>
                </g>
            </g>
        </g>
    </g>
</svg>