<?xml version="1.0" encoding="UTF-8"?>
<svg width="22px" height="19px" viewBox="0 0 22 19" version="1.1" xmlns="http://www.w3.org/2000/svg" xmlns:xlink="http://www.w3.org/1999/xlink">
    <!-- Generator: Sketch 50 (54983) - http://www.bohemiancoding.com/sketch -->
    <title>ico-line-menu@2x</title>
    <desc>Created with Sketch.</desc>
    <defs></defs>
    <g id="Main" stroke="none" stroke-width="1" fill="none" fill-rule="evenodd">
        <g id="M-Overview" transform="translate(-20.000000, -64.000000)" fill="#000000">
            <g id="nav" transform="translate(20.000000, 64.000000)">
                <path d="M0,1.23913043 C0,0.554777593 0.554826338,0 1.24584985,0 L20.7541502,0 C21.442214,0 22,0.55000641 22,1.23913043 C22,1.92348328 21.4451737,2.47826087 20.7541502,2.47826087 L1.24584985,2.47826087 C0.557785976,2.47826087 0,1.92825446 0,1.23913043 Z M0,9.5 C0,8.81564716 0.554826338,8.26086957 1.24584985,8.26086957 L20.7541502,8.26086957 C21.442214,8.26086957 22,8.81087598 22,9.5 C22,10.1843528 21.4451737,10.7391304 20.7541502,10.7391304 L1.24584985,10.7391304 C0.557785976,10.7391304 0,10.189124 0,9.5 Z M0,17.7608696 C0,17.0765167 0.554826338,16.5217391 1.24584985,16.5217391 L20.7541502,16.5217391 C21.442214,16.5217391 22,17.0717455 22,17.7608696 C22,18.4452224 21.4451737,19 20.7541502,19 L1.24584985,19 C0.557785976,19 0,18.4499936 0,17.7608696 Z" id="ico-line-menu"></path>
            </g>
        </g>
    </g>
</svg>