<?xml version="1.0" encoding="UTF-8" standalone="no"?>
<svg width="100px" height="100px" viewBox="0 0 100 100" version="1.1" xmlns="http://www.w3.org/2000/svg" xmlns:xlink="http://www.w3.org/1999/xlink">
    <!-- Generator: Sketch 50.2 (55047) - http://www.bohemiancoding.com/sketch -->
    <title>ico-campus</title>
    <desc>Created with Sketch.</desc>
    <defs>
        <linearGradient x1="0%" y1="0%" x2="100%" y2="100%" id="linearGradient-1">
            <stop stop-color="#0050C3" offset="0%"></stop>
            <stop stop-color="#00C9F3" offset="51.6786482%"></stop>
            <stop stop-color="#BCDCFF" offset="100%"></stop>
        </linearGradient>
    </defs>
    <g id="Layout" stroke="none" stroke-width="1" fill="none" fill-rule="evenodd">
        <g id="Home" transform="translate(-270.000000, -1663.000000)" fill="url(#linearGradient-1)">
            <g id="Mindvalley-Model" transform="translate(0.000000, 1460.000000)">
                <g id="points" transform="translate(140.000000, 203.000000)">
                    <g id="item">
                        <g id="ico-campus" transform="translate(130.000000, 0.000000)">
                            <path d="M97.355913,17.9851153 L85.0841204,75.9569516 C84.7881097,77.3495557 83.9620628,78.5458952 82.7565151,79.3259536 C81.5497024,80.1047618 80.1101292,80.374782 78.698386,80.0822602 L64.3216286,77.1107879 C64.6568544,76.9307744 64.9718401,76.710758 65.2336956,76.4269867 L77.9735393,62.6684576 C78.6148958,61.9759058 78.9412665,61.0408359 78.8704264,60.1045158 C78.7983212,59.1681958 78.3328002,58.2931303 77.5940385,57.7043363 L59.155357,43.0107372 C58.711341,42.6582108 58.1104646,42.6669615 57.6575936,42.9707342 L43.8829776,31.163601 L49.9018611,2.72897414 L93.1776086,11.6746433 C94.5880868,11.9659151 95.7999595,12.7834762 96.5893213,13.9748153 C97.378683,15.1686546 97.6493937,16.591261 97.355913,17.9851153 Z M38.3587101,65.4699172 C37.9159591,65.1186409 37.3138178,65.1261414 36.8634768,65.4299142 L36.6522213,65.2486506 C36.6610763,65.2186484 36.6800513,65.1948966 36.6863764,65.1648943 L39.0747017,53.8790502 L43.5793769,58.1756215 C43.3124613,58.6469068 43.3567364,59.2407012 43.7514173,59.6444814 L59.9080337,76.2007198 L49.0707542,73.9605523 C49.0492492,73.9555519 49.0302742,73.9630524 49.0100341,73.9605523 L38.3587101,65.4699172 Z M55.5526288,82.75371 C55.5728689,83.0087291 55.4855837,83.2524973 55.3122783,83.4425115 L42.5736996,97.1997905 C42.3991292,97.3873046 42.1600437,97.4935625 41.9019831,97.4973128 C41.6527775,97.4698107 41.402307,97.3998055 41.2214116,97.2160418 L39.2277671,95.1721389 L52.973288,80.3272785 L55.2123431,82.1111619 C55.4122135,82.2711739 55.5311238,82.499941 55.5526288,82.75371 Z M37.6945836,68.1526178 L50.9986186,78.7546609 L37.4681481,93.3682539 L25.6036864,81.2123447 L37.6945836,68.1526178 Z M14.0238503,49.1661976 L35.1101828,67.2400496 L24.4512688,78.7521607 L4.36934857,59.5932276 L14.0238503,49.1661976 Z M3.0537456,54.7766173 L9.05365412,48.2961326 L10.331307,49.451219 L4.33013348,55.9304536 L3.0537456,54.7766173 Z M29.7794608,45.0096367 L33.4897142,48.5486514 L26.2678129,56.3467347 L22.3728691,53.0089851 L29.7794608,45.0096367 Z M28.1767022,57.9856073 L35.3087883,50.2850313 L36.9267269,51.8301469 C36.9254619,51.8401476 36.9178719,51.8476482 36.9166069,51.8563989 L34.4751514,63.3835111 L28.1767022,57.9856073 Z M58.26353,70.9103241 L46.3990682,58.7544148 L58.4912305,45.694688 L71.7965304,56.2979811 L58.26353,70.9103241 Z M63.3690814,74.7418607 C63.1945111,74.9293747 62.9566905,75.0343826 62.6973649,75.0381329 C62.4532194,75.0143811 62.1976888,74.9431257 62.0167934,74.759362 L60.0206189,72.7129589 L73.7686699,57.8680985 L76.0064599,59.651982 C76.2063304,59.8119939 76.3290356,60.0407611 76.3480107,60.2957801 C76.3669857,60.5495491 76.2822305,60.7933173 76.1076601,60.9833316 L63.3690814,74.7418607 Z M34.8192321,26.7070177 L55.9080946,44.7808696 L45.2491806,56.2929807 L25.1647304,37.1340476 L34.8192321,26.7070177 Z M23.8491274,32.3174374 L29.849036,25.8369526 L31.1266888,26.992039 L25.1267803,33.4712737 L23.8491274,32.3174374 Z M93.6962598,9.22946037 L49.1808095,0.0275220696 C48.497708,-0.116238684 47.8285214,0.317543763 47.6830461,0.99384435 L41.6945226,29.2884608 L35.5466088,24.0205667 C35.0279576,23.5780336 34.2461859,23.6217869 33.7844598,24.1218243 L32.8331777,25.1481511 L30.6232177,23.1492516 C30.3752771,22.9242347 30.0564964,22.807976 29.7124156,22.8217271 C29.3771899,22.8367282 29.0622042,22.981739 28.8345037,23.2267574 L21.1281063,31.55113 C20.9016708,31.7948983 20.7827605,32.1186725 20.7966756,32.4499473 C20.8131206,32.7824721 20.9585959,33.0937454 21.2078015,33.3175122 L23.4177615,35.3151616 L22.4664793,36.3427384 C22.0034883,36.8415258 22.0275233,37.6153336 22.5208744,38.0866189 L27.9578567,43.2732568 L20.4576548,51.3713626 L14.7499619,46.4797467 C14.2325758,46.0372136 13.448274,46.0809669 12.987813,46.5810043 L12.0365308,47.6085811 L9.82657086,45.6096816 C9.5786303,45.3846648 9.25858458,45.2646558 8.9145038,45.2821571 C8.58054305,45.2971582 8.26555734,45.4421691 8.03912183,45.6871874 L0.331459473,54.0115601 C0.105023963,54.2553283 -0.0138863046,54.5791025 0.00129372959,54.9103773 C0.0164737638,55.2429022 0.161949091,55.5541755 0.411154653,55.7779422 L2.62111463,57.7755916 L1.66856748,58.8031685 C1.20684144,59.3019558 1.2308765,60.0757637 1.72422761,60.5470489 L22.781465,80.6360516 C22.5132844,81.1073368 22.5600895,81.7011312 22.9547704,82.1049114 L39.3998075,98.9549218 C40.0487539,99.6199716 40.954496,100 41.8880681,100 C41.9019831,100 41.9171631,100 41.9323432,99.9987499 C42.8810953,99.986249 43.7969574,99.5824688 44.4370488,98.8886669 L57.1756275,85.1313878 C57.8169839,84.4375859 58.1458847,83.5037661 58.0712495,82.566196 C58.0004094,81.631126 57.5348883,80.7560606 56.7961266,80.1672665 L53.3135738,77.3920589 L78.1772048,82.5324434 C78.723686,82.6462019 79.2714323,82.7012061 79.8166485,82.7012061 C81.3409769,82.7012061 82.8336803,82.2649234 84.1391632,81.4223604 C85.9089022,80.2772747 87.12457,78.5196433 87.5584659,76.4719901 L99.8302586,18.5014039 C100.26289,16.4525007 99.8618836,14.3610942 98.703141,12.6097132 C97.5443984,10.8583322 95.7695994,9.65574226 93.6962598,9.22946037 Z" id="Fill-3"></path>
                            <path d="M58.0081301,31.9715447 L62.2050093,32.8088352 C62.8087537,35.2250831 63.8365858,37.2506731 64.7764228,38.7398374 C61.68926,37.3311369 59.3048362,34.8962308 58.0081301,31.9715447 Z M63.3251154,15.8559123 C65.1457266,14.7610032 67.1841987,14.1122886 69.2886179,13.9227642 C68.1274778,14.8021571 66.7496544,16.0476027 65.4919489,17.6829268 L61.7682927,16.9670664 C62.2558302,16.5685238 62.7680979,16.1905581 63.3251154,15.8559123 Z M81.1865406,19.7253273 C81.5287487,20.2772563 81.8154036,20.8549108 82.0731707,21.4430894 L78.5566489,20.6689856 C78.1388883,18.5454621 77.4555831,16.7610475 76.8089431,15.4268293 C78.5566489,16.4523414 80.0576982,17.9116792 81.1865406,19.7253273 Z M79.0650407,27.9461666 C79.3132011,26.1684398 79.339909,24.493912 79.2119339,22.9471545 L83.2047584,23.8685748 C83.5786684,25.522217 83.6754843,27.2422015 83.4751754,28.9634146 L79.0650407,27.9461666 Z M75.6305758,35.7317073 L79.8170732,36.5809225 C77.4054458,38.7950324 74.2045807,40.1315411 70.7926829,40.2439024 C72.2772305,39.2243711 74.0655187,37.7412013 75.6305758,35.7317073 Z M67.7845528,34.1902164 L66.9466125,38.7398374 C66.2311653,37.4901983 65.3639566,35.6735478 64.7764228,33.4756098 L67.7845528,34.1902164 Z M64.1569947,26.7073171 L69.2886179,27.7731093 L68.402892,31.9715447 L64.2245007,31.1034211 C64.0045241,29.7336122 63.9428376,28.2586112 64.1569947,26.7073171 Z M70.0406504,21.5412505 L69.0960435,25.9552846 L64.0243902,24.9184083 C64.4731073,23.3124871 65.1289245,21.9067437 65.8790874,20.6910569 L70.0406504,21.5412505 Z M72.296748,14.6747967 L71.2690983,19.1869919 L67.7845528,18.5179 C69.4831474,16.5440234 71.3006436,15.2804306 72.296748,14.6747967 Z M73.0487805,19.2571708 L73.9335246,14.6747967 C74.4968292,15.6187272 75.4569598,17.463476 76.0569106,19.9390244 L73.0487805,19.2571708 Z M70.0406504,32.5746123 L70.9277978,28.2113821 L76.0569106,29.3154043 C75.6238426,30.8771332 74.9853299,32.2658705 74.2300873,33.4756098 L70.0406504,32.5746123 Z M69.2886179,39.4918699 L70.2753423,34.9796748 L73.800813,35.6871831 C72.2577034,37.415699 70.5745426,38.6782354 69.2886179,39.4918699 Z M76.6261339,27.4593496 L71.5447154,26.3159374 L72.4914919,21.4430894 L76.6642358,22.3816558 C76.8547457,23.9347597 76.8720648,25.6418083 76.6261339,27.4593496 Z M60.3421521,19.1869919 L64.7764228,20.0583604 C64.0219165,21.3445003 63.3737832,22.8072376 62.9099473,24.4512195 L58.0081301,23.4880668 C58.5004145,21.9126326 59.2932646,20.4626754 60.3421521,19.1869919 Z M57.3573705,25.203252 L61.7682927,26.1516586 C61.5515261,27.6679664 61.5470796,29.1122867 61.6927023,30.4674797 L57.5463465,29.5750634 C57.2450966,28.1695935 57.1717294,26.695564 57.3573705,25.203252 Z M80.9481745,34.9796748 L76.8089431,34.0173834 C77.4705097,32.7429641 78.0266253,31.3106303 78.4217892,29.7154472 L82.8252033,30.7394239 C82.4133891,32.2988296 81.7706927,33.7225274 80.9481745,34.9796748 Z M73.5676338,11.9989638 C69.5355012,11.1547219 65.4185807,11.9318484 61.9728972,14.1855151 C58.5283914,16.4380044 56.1661081,19.8997495 55.3229401,23.927855 C54.8153907,26.3498992 54.9249083,28.7554588 55.5196008,30.9985284 C55.5231336,31.0173678 55.5290217,31.0338523 55.5325545,31.0526917 C56.9845462,36.4643178 61.332278,40.8939386 67.1685074,42.1491156 C67.1732179,42.1502931 67.1779283,42.1514706 67.1838163,42.1538255 C67.2085461,42.1585353 67.2297431,42.1667776 67.2556505,42.1726649 C68.3143208,42.3940282 69.3718136,42.5 70.4139974,42.5 C77.556195,42.5 83.9824064,37.499309 85.5015218,30.2414188 C86.3446897,26.2109584 85.5686455,22.0945431 83.3135246,18.6481049 C81.0584037,15.2040218 77.5985889,12.8420283 73.5676338,11.9989638 Z" id="Fill-1"></path>
                        </g>
                    </g>
                </g>
            </g>
        </g>
    </g>
</svg>