<svg id="Layer_1" data-name="Layer 1" xmlns="http://www.w3.org/2000/svg" viewBox="0 0 262.5 262.5"><defs><style>.cls-1{fill:#fff;}</style></defs><title>logo-fb-white</title><path class="cls-1" d="M343.75,357.37a28,28,0,0,1-28.13,28.13h-49.8V281.79H301l5.27-39.85H265.82V216.75q0-9.37,3.52-14.06,4.68-5.28,15.82-5.28h21.09V162.26a219.54,219.54,0,0,0-30.47-1.76q-23.43,0-37.21,13.77T224.8,212.65v29.29H189.06v39.85H224.8V385.5H109.38a28,28,0,0,1-28.13-28.13V151.12A28,28,0,0,1,109.38,123H315.62a28,28,0,0,1,28.13,28.12Z" transform="translate(-81.25 -123)"/></svg>