<?xml version="1.0" encoding="UTF-8" standalone="no"?>
<svg width="90px" height="90px" viewBox="0 0 90 90" version="1.1" xmlns="http://www.w3.org/2000/svg" xmlns:xlink="http://www.w3.org/1999/xlink">
    <!-- Generator: Sketch 50.2 (55047) - http://www.bohemiancoding.com/sketch -->
    <title>ico-teachers</title>
    <desc>Created with Sketch.</desc>
    <defs>
        <linearGradient x1="-51.5073529%" y1="-149.071691%" x2="579.457721%" y2="498.685662%" id="linearGradient-1">
            <stop stop-color="#0050C3" offset="0%"></stop>
            <stop stop-color="#00C9F3" offset="51.6786482%"></stop>
            <stop stop-color="#BCDCFF" offset="100%"></stop>
        </linearGradient>
        <linearGradient x1="0%" y1="0%" x2="100%" y2="100%" id="linearGradient-2">
            <stop stop-color="#0050C3" offset="0%"></stop>
            <stop stop-color="#00C9F3" offset="51.6786482%"></stop>
            <stop stop-color="#BCDCFF" offset="100%"></stop>
        </linearGradient>
        <linearGradient x1="-362.890625%" y1="-145.71875%" x2="148.351563%" y2="435.390625%" id="linearGradient-3">
            <stop stop-color="#0050C3" offset="0%"></stop>
            <stop stop-color="#00C9F3" offset="51.6786482%"></stop>
            <stop stop-color="#BCDCFF" offset="100%"></stop>
        </linearGradient>
    </defs>
    <g id="Layout" stroke="none" stroke-width="1" fill="none" fill-rule="evenodd">
        <g id="Home" transform="translate(-1075.000000, -1673.000000)">
            <g id="Mindvalley-Model" transform="translate(0.000000, 1460.000000)">
                <g id="points" transform="translate(140.000000, 203.000000)">
                    <g id="item" transform="translate(800.000000, 10.000000)">
                        <g id="ico-teachers" transform="translate(135.000000, 0.000000)">
                            <path d="M17.5,35.75 C15.706,35.75 14.25,34.292375 14.25,32.5 C14.25,30.707625 15.706,29.25 17.5,29.25 C19.292375,29.25 20.75,30.707625 20.75,32.5 C20.75,34.292375 19.292375,35.75 17.5,35.75 M17.5,26 C13.91525,26 11,28.91525 11,32.5 C11,36.08475 13.91525,39 17.5,39 C21.08475,39 24,36.08475 24,32.5 C24,28.91525 21.08475,26 17.5,26" id="Fill-1" fill="url(#linearGradient-1)"></path>
                            <path d="M86.7857143,49.8214286 L80.3571429,49.8214286 C79.4667857,49.8214286 78.75,50.5398214 78.75,51.4285714 L78.75,65.8928571 C78.75,68.5510714 76.5851786,70.7142857 73.9285714,70.7142857 L61.0714286,70.7142857 L61.0714286,30.5357143 C61.0714286,20.2821429 55.9751786,11.2146429 48.1982143,5.67321429 C51.6391071,4.10785714 55.4448214,3.21428571 59.4642857,3.21428571 C74.5296429,3.21428571 86.7857143,15.4703571 86.7857143,30.5357143 L86.7857143,49.8214286 Z M28.9285714,30.5357143 L28.9285714,70.7142857 L16.0714286,70.7142857 C13.4132143,70.7142857 11.25,68.5510714 11.25,65.8928571 L11.25,51.4285714 C11.25,50.5398214 10.5316071,49.8214286 9.64285714,49.8214286 L3.21428571,49.8214286 L3.21428571,30.5357143 C3.21428571,15.4703571 15.4703571,3.21428571 30.5357143,3.21428571 C34.5551786,3.21428571 38.3608929,4.10785714 41.8001786,5.67321429 C34.0248214,11.2146429 28.9285714,20.2821429 28.9285714,30.5357143 Z M59.4642857,0 C54.2330357,0 49.30875,1.32589286 45,3.65303571 C40.6896429,1.32589286 35.7669643,0 30.5357143,0 C13.6960714,0 0,13.6976786 0,30.5357143 L0,51.4285714 C0,52.3173214 0.716785714,53.0357143 1.60714286,53.0357143 L8.03571429,53.0357143 L8.03571429,65.8928571 C8.03571429,70.32375 11.6389286,73.9285714 16.0714286,73.9285714 L28.9285714,73.9285714 L28.9285714,80.3571429 L28.9285714,81.9642857 C28.9285714,84.6225 26.76375,86.7857143 24.1071429,86.7857143 L6.42857143,86.7857143 L6.42857143,90 L24.1071429,90 C28.5380357,90 32.1428571,86.3951786 32.1428571,81.9642857 L32.1428571,80.3571429 L32.1428571,72.3214286 L32.1428571,30.5357143 C32.1428571,20.7851786 37.29375,12.2351786 45,7.39928571 C52.70625,12.2351786 57.8571429,20.7851786 57.8571429,30.5357143 L57.8571429,72.3214286 L57.8571429,80.3571429 L57.8571429,81.9642857 C57.8571429,86.3951786 61.4603571,90 65.8928571,90 L83.5714286,90 L83.5714286,86.7857143 L65.8928571,86.7857143 C63.2346429,86.7857143 61.0714286,84.6225 61.0714286,81.9642857 L61.0714286,80.3571429 L61.0714286,73.9285714 L73.9285714,73.9285714 C78.3594643,73.9285714 81.9642857,70.32375 81.9642857,65.8928571 L81.9642857,53.0357143 L88.3928571,53.0357143 C89.2816071,53.0357143 90,52.3173214 90,51.4285714 L90,30.5357143 C90,13.6976786 76.3023214,0 59.4642857,0 Z" id="Fill-3" fill="url(#linearGradient-2)"></path>
                            <path d="M71.5,37.25 C69.43,37.25 67.75,35.568125 67.75,33.5 C67.75,31.431875 69.43,29.75 71.5,29.75 C73.568125,29.75 75.25,31.431875 75.25,33.5 C75.25,35.568125 73.568125,37.25 71.5,37.25 M71.5,26 C67.36375,26 64,29.36375 64,33.5 C64,37.63625 67.36375,41 71.5,41 C75.63625,41 79,37.63625 79,33.5 C79,29.36375 75.63625,26 71.5,26" id="Fill-6" fill="url(#linearGradient-3)"></path>
                        </g>
                    </g>
                </g>
            </g>
        </g>
    </g>
</svg>