<svg id="Layer_1" data-name="Layer 1" xmlns="http://www.w3.org/2000/svg" viewBox="0 0 319.92 225"><defs><style>.cls-1{fill:#fff;}</style></defs><title>logo-yt-white</title><path class="cls-1" d="M403.52,176.9q4.1,15.82,5.86,48l.58,29.3-.58,29.29q-1.77,32.82-5.86,48.64A41.57,41.57,0,0,1,374.8,360.3q-15.23,4.11-71.48,5.86l-53.32.59-53.32-.59q-56.25-1.76-71.48-5.86a41.57,41.57,0,0,1-28.72-28.12q-4.1-15.82-5.86-48.64L90,254.25q0-12.9.58-29.3,1.77-32.22,5.86-48a41,41,0,0,1,28.72-28.71q15.22-4.09,71.48-5.86l53.32-.58,53.32.58q56.25,1.77,71.48,5.86a41,41,0,0,1,28.72,28.71ZM217.19,302.29l83.79-48-83.79-47.46Z" transform="translate(-90.04 -141.75)"/></svg>