<?xml version="1.0" encoding="UTF-8" standalone="no"?>
<svg width="90px" height="90px" viewBox="0 0 90 90" version="1.1" xmlns="http://www.w3.org/2000/svg" xmlns:xlink="http://www.w3.org/1999/xlink">
    <!-- Generator: Sketch 50.2 (55047) - http://www.bohemiancoding.com/sketch -->
    <title>ico-curriculum</title>
    <desc>Created with Sketch.</desc>
    <defs>
        <linearGradient x1="0%" y1="0%" x2="100%" y2="100%" id="linearGradient-1">
            <stop stop-color="#0050C3" offset="0%"></stop>
            <stop stop-color="#00C9F3" offset="51.6786482%"></stop>
            <stop stop-color="#BCDCFF" offset="100%"></stop>
        </linearGradient>
        <linearGradient x1="-26.2638889%" y1="-37.6458333%" x2="290.354167%" y2="507.697917%" id="linearGradient-2">
            <stop stop-color="#0050C3" offset="0%"></stop>
            <stop stop-color="#00C9F3" offset="51.6786482%"></stop>
            <stop stop-color="#BCDCFF" offset="100%"></stop>
        </linearGradient>
        <linearGradient x1="-183.631944%" y1="-129.53125%" x2="146.944444%" y2="373.4375%" id="linearGradient-3">
            <stop stop-color="#0050C3" offset="0%"></stop>
            <stop stop-color="#00C9F3" offset="51.6786482%"></stop>
            <stop stop-color="#BCDCFF" offset="100%"></stop>
        </linearGradient>
    </defs>
    <g id="Layout" stroke="none" stroke-width="1" fill="none" fill-rule="evenodd">
        <g id="Home" transform="translate(-675.000000, -1673.000000)">
            <g id="Mindvalley-Model" transform="translate(0.000000, 1460.000000)">
                <g id="points" transform="translate(140.000000, 203.000000)">
                    <g id="item" transform="translate(400.000000, 10.000000)">
                        <g id="ico-curriculum" transform="translate(135.000000, 0.000000)">
                            <path d="M87.1875,52.03125 L2.8125,52.03125 L2.8125,7.03125 C2.8125,6.255 3.4425,5.625 4.21875,5.625 L7.03125,5.625 L7.03125,49.21875 L9.84375,49.21875 L9.84375,2.8125 L42.1875,2.8125 C42.96375,2.8125 43.59375,3.4425 43.59375,4.21875 L46.40625,4.21875 C46.40625,3.4425 47.0348438,2.8125 47.8125,2.8125 L80.15625,2.8125 L80.15625,49.21875 L82.96875,49.21875 L82.96875,5.625 L85.78125,5.625 C86.5589063,5.625 87.1875,6.255 87.1875,7.03125 L87.1875,52.03125 Z M2.8125,67.5 L87.1875,67.5 L87.1875,54.84375 L2.8125,54.84375 L2.8125,67.5 Z M34.059375,81.5625 L36.309375,70.3125 L53.690625,70.3125 L55.940625,81.5625 L34.059375,81.5625 Z M57.65625,84.375 L60.46875,84.375 L60.46875,87.1875 L29.53125,87.1875 L29.53125,84.375 L57.65625,84.375 Z M85.78125,2.8125 L82.96875,2.8125 L82.96875,1.40625 C82.96875,0.63 82.3401562,0 81.5625,0 L47.8125,0 C46.771875,0.005625 45.770625,0.3965625 45,1.096875 C44.229375,0.3965625 43.228125,0.005625 42.1875,0 L8.4375,0 C7.66125,0 7.03125,0.63 7.03125,1.40625 L7.03125,2.8125 L4.21875,2.8125 C1.88859375,2.8125 0,4.70109375 0,7.03125 L0,68.90625 C0,69.6839062 0.63,70.3125 1.40625,70.3125 L33.440625,70.3125 L31.190625,81.5625 L28.125,81.5625 C27.34875,81.5625 26.71875,82.1910938 26.71875,82.96875 L26.71875,87.1875 L23.90625,87.1875 L23.90625,90 L66.09375,90 L66.09375,87.1875 L63.28125,87.1875 L63.28125,82.96875 C63.28125,82.1910938 62.6526562,81.5625 61.875,81.5625 L58.809375,81.5625 L56.559375,70.3125 L88.59375,70.3125 C89.3714062,70.3125 90,69.6839062 90,68.90625 L90,7.03125 C90,4.70109375 88.1114063,2.8125 85.78125,2.8125 Z" id="Fill-1" fill="url(#linearGradient-1)"></path>
                            <path d="M45,59.0625 C45.77625,59.0625 46.40625,59.6910938 46.40625,60.46875 C46.40625,61.2464062 45.77625,61.875 45,61.875 C44.22375,61.875 43.59375,61.2464062 43.59375,60.46875 C43.59375,59.6910938 44.22375,59.0625 45,59.0625 M45,64.6875 C42.6698438,64.6875 40.78125,62.7989062 40.78125,60.46875 C40.78125,58.1385937 42.6698438,56.25 45,56.25 C47.3301563,56.25 49.21875,58.1385937 49.21875,60.46875 C49.21875,62.7989062 47.3301563,64.6875 45,64.6875 Z M14.0625,30.9375 L14.0625,28.125 L16.875,28.125 L16.875,30.9375 L14.0625,30.9375 Z M19.6875,30.9375 L19.6875,28.125 L22.5,28.125 L22.5,30.9375 L19.6875,30.9375 Z M30.9375,30.9375 L30.9375,28.125 L39.375,28.125 L39.375,30.9375 L30.9375,30.9375 Z M43.59375,49.21875 L43.59375,12.65625 L46.40625,12.65625 L46.40625,49.21875 L43.59375,49.21875 Z M43.59375,9.84375 L43.59375,7.03125 L46.40625,7.03125 L46.40625,9.84375 L43.59375,9.84375 Z M14.0625,36.5625 L14.0625,33.75 L39.375,33.75 L39.375,36.5625 L14.0625,36.5625 Z M14.0625,42.1875 L14.0625,39.375 L39.375,39.375 L39.375,42.1875 L14.0625,42.1875 Z M14.0625,47.8125 L14.0625,45 L39.375,45 L39.375,47.8125 L14.0625,47.8125 Z M50.625,47.8125 L50.625,45 L75.9375,45 L75.9375,47.8125 L50.625,47.8125 Z M50.625,19.6875 L50.625,16.875 L75.9375,16.875 L75.9375,19.6875 L50.625,19.6875 Z M50.625,14.0625 L50.625,11.25 L75.9375,11.25 L75.9375,14.0625 L50.625,14.0625 Z M50.625,8.4375 L50.625,5.625 L64.6875,5.625 L64.6875,8.4375 L50.625,8.4375 Z M73.125,8.4375 L73.125,5.625 L75.9375,5.625 L75.9375,8.4375 L73.125,8.4375 Z M67.5,8.4375 L67.5,5.625 L70.3125,5.625 L70.3125,8.4375 L67.5,8.4375 Z" id="Combined-Shape" fill="url(#linearGradient-1)"></path>
                            <path d="M16.875,21.09375 L36.5625,21.09375 L36.5625,9.84375 L16.875,9.84375 L16.875,21.09375 Z M37.96875,7.03125 L15.46875,7.03125 C14.6925,7.03125 14.0625,7.66125 14.0625,8.4375 L14.0625,22.5 C14.0625,23.27625 14.6925,23.90625 15.46875,23.90625 L37.96875,23.90625 C38.745,23.90625 39.375,23.27625 39.375,22.5 L39.375,8.4375 C39.375,7.66125 38.745,7.03125 37.96875,7.03125 Z" id="Fill-9" fill="url(#linearGradient-2)"></path>
                            <path d="M53.4375,37.96875 L73.125,37.96875 L73.125,26.71875 L53.4375,26.71875 L53.4375,37.96875 Z M74.53125,23.90625 L52.03125,23.90625 C51.2535938,23.90625 50.625,24.53625 50.625,25.3125 L50.625,39.375 C50.625,40.15125 51.2535938,40.78125 52.03125,40.78125 L74.53125,40.78125 C75.3089063,40.78125 75.9375,40.15125 75.9375,39.375 L75.9375,25.3125 C75.9375,24.53625 75.3089063,23.90625 74.53125,23.90625 Z" id="Fill-10" fill="url(#linearGradient-3)"></path>
                        </g>
                    </g>
                </g>
            </g>
        </g>
    </g>
</svg>