<?xml version="1.0" encoding="utf-8"?>
<!-- Generator: Adobe Illustrator 16.0.0, SVG Export Plug-In . SVG Version: 6.00 Build 0)  -->
<!DOCTYPE svg PUBLIC "-//W3C//DTD SVG 1.1//EN" "http://www.w3.org/Graphics/SVG/1.1/DTD/svg11.dtd">
<svg version="1.1" id="Layer_1" xmlns="http://www.w3.org/2000/svg" xmlns:xlink="http://www.w3.org/1999/xlink" x="0px" y="0px"
	 width="47px" height="21px" viewBox="0 0 47 21" enable-background="new 0 0 47 21" xml:space="preserve">
<title>logo_mv</title>
<desc>Created with Sketch.</desc>
<g id="Page-1">
	<g id="mva_platform" transform="translate(-20.000000, -32.000000)">
		<g id="sidebar">
			<g id="btn_home">
				<g id="logo_mv" transform="translate(19.767442, 32.616279)">
					<g id="Group-3">
						<g id="Clip-2">
						</g>
						<defs>
							<filter id="Adobe_OpacityMaskFilter" filterUnits="userSpaceOnUse" x="0" y="0" width="22.021" height="19.8">
								<feColorMatrix  type="matrix" values="1 0 0 0 0  0 1 0 0 0  0 0 1 0 0  0 0 0 1 0"/>
							</filter>
						</defs>
						<mask maskUnits="userSpaceOnUse" x="0" y="0" width="22.021" height="19.8" id="mask-2">
							<g filter="url(#Adobe_OpacityMaskFilter)">
								<path id="path-1" fill="#FFFFFF" d="M0,0h46.453v19.8H0"/>
							</g>
						</mask>
						<path id="Fill-1" mask="url(#mask-2)" fill="#3288F5" d="M22.021,19.782c0,0-1.311,0.682-9.275-6.336C4.781,6.426,0,0,0,0
							s15.778,1.296,19.386,5.44C21.574,7.952,22.021,19.782,22.021,19.782"/>
					</g>
					<g id="Group-8">
						<g id="Clip-7">
						</g>
						<defs>
							<filter id="Adobe_OpacityMaskFilter_1_" filterUnits="userSpaceOnUse" x="24.436" y="0" width="22.018" height="19.8">
								<feColorMatrix  type="matrix" values="1 0 0 0 0  0 1 0 0 0  0 0 1 0 0  0 0 0 1 0"/>
							</filter>
						</defs>
						<mask maskUnits="userSpaceOnUse" x="24.436" y="0" width="22.018" height="19.8" id="mask-4">
							<g filter="url(#Adobe_OpacityMaskFilter_1_)">
								<path id="path-3" fill="#FFFFFF" d="M0,0h46.453v19.8H0"/>
							</g>
						</mask>
						<path id="Fill-6" mask="url(#mask-4)" fill="#3288F5" d="M24.436,19.782c0,0,1.311,0.682,9.272-6.336
							C41.673,6.426,46.453,0,46.453,0S30.678,1.296,27.067,5.44C24.882,7.952,24.436,19.782,24.436,19.782"/>
					</g>
				</g>
			</g>
		</g>
	</g>
</g>
</svg>
